G04*
G04 #@! TF.GenerationSoftware,Altium Limited,Altium Designer,20.2.4 (192)*
G04*
G04 Layer_Color=128*
%FSLAX25Y25*%
%MOIN*%
G70*
G04*
G04 #@! TF.SameCoordinates,5D221C76-13CA-4EE4-81E9-8EB1FD8A002E*
G04*
G04*
G04 #@! TF.FilePolarity,Positive*
G04*
G01*
G75*
G36*
X603740Y143465D02*
X603737Y143361D01*
X603729Y143259D01*
X603716Y143157D01*
X603697Y143055D01*
X603673Y142955D01*
X603644Y142856D01*
X603609Y142759D01*
X603570Y142664D01*
X603526Y142571D01*
X603476Y142480D01*
X603423Y142392D01*
X603364Y142307D01*
X603301Y142226D01*
X603234Y142147D01*
X603164Y142073D01*
X603089Y142002D01*
X603011Y141935D01*
X602929Y141872D01*
X602844Y141814D01*
X602756Y141760D01*
X602665Y141711D01*
X602572Y141666D01*
X602477Y141627D01*
X602380Y141592D01*
X602281Y141563D01*
X602181Y141539D01*
X602080Y141520D01*
X601977Y141507D01*
X601875Y141499D01*
X601772Y141496D01*
X598228D01*
X598125Y141499D01*
X598023Y141507D01*
X597920Y141520D01*
X597819Y141539D01*
X597719Y141563D01*
X597620Y141592D01*
X597523Y141627D01*
X597428Y141666D01*
X597335Y141711D01*
X597244Y141760D01*
X597156Y141814D01*
X597071Y141872D01*
X596989Y141935D01*
X596911Y142002D01*
X596836Y142073D01*
X596766Y142147D01*
X596699Y142226D01*
X596636Y142307D01*
X596577Y142392D01*
X596524Y142480D01*
X596474Y142571D01*
X596430Y142664D01*
X596391Y142759D01*
X596356Y142856D01*
X596327Y142955D01*
X596303Y143055D01*
X596284Y143157D01*
X596271Y143259D01*
X596263Y143361D01*
X596260Y143465D01*
Y149764D01*
X603740D01*
Y143465D01*
D02*
G37*
G36*
X612313Y152517D02*
X612421Y152508D01*
X612528Y152494D01*
X612635Y152474D01*
X612740Y152449D01*
X612843Y152418D01*
X612945Y152382D01*
X613045Y152341D01*
X613143Y152294D01*
X613238Y152243D01*
X613331Y152186D01*
X613420Y152125D01*
X613506Y152059D01*
X613588Y151989D01*
X613666Y151914D01*
X613741Y151836D01*
X613811Y151753D01*
X613877Y151668D01*
X613938Y151578D01*
X613995Y151486D01*
X614046Y151391D01*
X614093Y151294D01*
X614134Y151193D01*
X614171Y151092D01*
X614201Y150988D01*
X614226Y150882D01*
X614246Y150776D01*
X614260Y150669D01*
X614269Y150561D01*
X614272Y150453D01*
X614269Y150345D01*
X614260Y150237D01*
X614246Y150129D01*
X614226Y150023D01*
X614201Y149918D01*
X614171Y149814D01*
X614134Y149712D01*
X614093Y149612D01*
X614046Y149514D01*
X613995Y149419D01*
X613938Y149327D01*
X613877Y149238D01*
X613811Y149152D01*
X613741Y149070D01*
X613666Y148991D01*
X613588Y148917D01*
X613506Y148846D01*
X613420Y148781D01*
X613331Y148719D01*
X613238Y148663D01*
X613143Y148611D01*
X613045Y148565D01*
X612945Y148523D01*
X612843Y148487D01*
X612740Y148456D01*
X612635Y148431D01*
X612528Y148411D01*
X612421Y148397D01*
X612313Y148389D01*
X612205Y148386D01*
X611417D01*
X611309Y148389D01*
X611201Y148397D01*
X611094Y148411D01*
X610988Y148431D01*
X610882Y148456D01*
X610779Y148487D01*
X610677Y148523D01*
X610577Y148565D01*
X610479Y148611D01*
X610384Y148663D01*
X610292Y148719D01*
X610202Y148781D01*
X610117Y148846D01*
X610034Y148917D01*
X609956Y148991D01*
X609881Y149070D01*
X609811Y149152D01*
X609745Y149238D01*
X609684Y149327D01*
X609627Y149419D01*
X609576Y149514D01*
X609529Y149612D01*
X609488Y149712D01*
X609452Y149814D01*
X609421Y149918D01*
X609396Y150023D01*
X609376Y150129D01*
X609362Y150237D01*
X609353Y150345D01*
X609350Y150453D01*
X609353Y150561D01*
X609362Y150669D01*
X609376Y150776D01*
X609396Y150882D01*
X609421Y150988D01*
X609452Y151092D01*
X609488Y151193D01*
X609529Y151294D01*
X609576Y151391D01*
X609627Y151486D01*
X609684Y151578D01*
X609745Y151668D01*
X609811Y151753D01*
X609881Y151836D01*
X609956Y151914D01*
X610034Y151989D01*
X610117Y152059D01*
X610202Y152125D01*
X610292Y152186D01*
X610384Y152243D01*
X610479Y152294D01*
X610577Y152341D01*
X610677Y152382D01*
X610779Y152418D01*
X610882Y152449D01*
X610988Y152474D01*
X611094Y152494D01*
X611201Y152508D01*
X611309Y152517D01*
X611417Y152520D01*
X612205D01*
X612313Y152517D01*
D02*
G37*
G36*
X601875Y178501D02*
X601977Y178493D01*
X602080Y178480D01*
X602181Y178461D01*
X602281Y178437D01*
X602380Y178408D01*
X602477Y178373D01*
X602572Y178334D01*
X602665Y178289D01*
X602756Y178240D01*
X602844Y178186D01*
X602929Y178128D01*
X603011Y178065D01*
X603089Y177998D01*
X603164Y177927D01*
X603234Y177853D01*
X603301Y177774D01*
X603364Y177692D01*
X603423Y177608D01*
X603476Y177520D01*
X603526Y177429D01*
X603570Y177336D01*
X603609Y177241D01*
X603644Y177144D01*
X603673Y177045D01*
X603697Y176945D01*
X603716Y176843D01*
X603729Y176741D01*
X603737Y176638D01*
X603740Y176535D01*
Y170236D01*
X596260D01*
Y176535D01*
X596263Y176638D01*
X596271Y176741D01*
X596284Y176843D01*
X596303Y176945D01*
X596327Y177045D01*
X596356Y177144D01*
X596391Y177241D01*
X596430Y177336D01*
X596474Y177429D01*
X596524Y177520D01*
X596577Y177608D01*
X596636Y177692D01*
X596699Y177774D01*
X596766Y177853D01*
X596836Y177927D01*
X596911Y177998D01*
X596989Y178065D01*
X597071Y178128D01*
X597156Y178186D01*
X597244Y178240D01*
X597335Y178289D01*
X597428Y178334D01*
X597523Y178373D01*
X597620Y178408D01*
X597719Y178437D01*
X597819Y178461D01*
X597920Y178480D01*
X598023Y178493D01*
X598125Y178501D01*
X598228Y178504D01*
X601772D01*
X601875Y178501D01*
D02*
G37*
G36*
X612313Y171611D02*
X612421Y171603D01*
X612528Y171589D01*
X612635Y171569D01*
X612740Y171544D01*
X612843Y171513D01*
X612945Y171477D01*
X613045Y171435D01*
X613143Y171389D01*
X613238Y171337D01*
X613331Y171281D01*
X613420Y171219D01*
X613506Y171153D01*
X613588Y171083D01*
X613666Y171009D01*
X613741Y170930D01*
X613811Y170848D01*
X613877Y170762D01*
X613938Y170673D01*
X613995Y170581D01*
X614046Y170486D01*
X614093Y170388D01*
X614134Y170288D01*
X614171Y170186D01*
X614201Y170082D01*
X614226Y169977D01*
X614246Y169871D01*
X614260Y169763D01*
X614269Y169655D01*
X614272Y169547D01*
X614269Y169439D01*
X614260Y169331D01*
X614246Y169224D01*
X614226Y169117D01*
X614201Y169012D01*
X614171Y168909D01*
X614134Y168807D01*
X614093Y168707D01*
X614046Y168609D01*
X613995Y168514D01*
X613938Y168421D01*
X613877Y168332D01*
X613811Y168246D01*
X613741Y168164D01*
X613666Y168086D01*
X613588Y168011D01*
X613506Y167941D01*
X613420Y167875D01*
X613331Y167814D01*
X613238Y167757D01*
X613143Y167706D01*
X613045Y167659D01*
X612945Y167618D01*
X612843Y167581D01*
X612740Y167551D01*
X612635Y167525D01*
X612528Y167506D01*
X612421Y167492D01*
X612313Y167483D01*
X612205Y167480D01*
X611417D01*
X611309Y167483D01*
X611201Y167492D01*
X611094Y167506D01*
X610988Y167525D01*
X610882Y167551D01*
X610779Y167581D01*
X610677Y167618D01*
X610577Y167659D01*
X610479Y167706D01*
X610384Y167757D01*
X610292Y167814D01*
X610202Y167875D01*
X610117Y167941D01*
X610034Y168011D01*
X609956Y168086D01*
X609881Y168164D01*
X609811Y168246D01*
X609745Y168332D01*
X609684Y168421D01*
X609627Y168514D01*
X609576Y168609D01*
X609529Y168707D01*
X609488Y168807D01*
X609452Y168909D01*
X609421Y169012D01*
X609396Y169117D01*
X609376Y169224D01*
X609362Y169331D01*
X609353Y169439D01*
X609350Y169547D01*
X609353Y169655D01*
X609362Y169763D01*
X609376Y169871D01*
X609396Y169977D01*
X609421Y170082D01*
X609452Y170186D01*
X609488Y170288D01*
X609529Y170388D01*
X609576Y170486D01*
X609627Y170581D01*
X609684Y170673D01*
X609745Y170762D01*
X609811Y170848D01*
X609881Y170930D01*
X609956Y171009D01*
X610034Y171083D01*
X610117Y171153D01*
X610202Y171219D01*
X610292Y171281D01*
X610384Y171337D01*
X610479Y171389D01*
X610577Y171435D01*
X610677Y171477D01*
X610779Y171513D01*
X610882Y171544D01*
X610988Y171569D01*
X611094Y171589D01*
X611201Y171603D01*
X611309Y171611D01*
X611417Y171614D01*
X612205D01*
X612313Y171611D01*
D02*
G37*
%LPC*%
G36*
X601772Y147795D02*
X598228D01*
X598167Y147794D01*
X598105Y147789D01*
X598044Y147781D01*
X597983Y147769D01*
X597923Y147755D01*
X597863Y147738D01*
X597805Y147717D01*
X597748Y147693D01*
X597692Y147667D01*
X597638Y147637D01*
X597585Y147605D01*
X597534Y147570D01*
X597485Y147532D01*
X597438Y147492D01*
X597393Y147449D01*
X597351Y147405D01*
X597310Y147357D01*
X597273Y147308D01*
X597238Y147257D01*
X597205Y147205D01*
X597176Y147150D01*
X597149Y147095D01*
X597126Y147037D01*
X597105Y146979D01*
X597087Y146920D01*
X597073Y146860D01*
X597062Y146799D01*
X597054Y146738D01*
X597049Y146676D01*
X597047Y146614D01*
Y145728D01*
X597049Y145667D01*
X597054Y145605D01*
X597062Y145544D01*
X597073Y145483D01*
X597087Y145423D01*
X597105Y145363D01*
X597126Y145305D01*
X597149Y145248D01*
X597176Y145192D01*
X597205Y145138D01*
X597238Y145085D01*
X597273Y145034D01*
X597310Y144985D01*
X597351Y144938D01*
X597393Y144893D01*
X597438Y144851D01*
X597485Y144810D01*
X597534Y144773D01*
X597585Y144738D01*
X597638Y144705D01*
X597692Y144676D01*
X597748Y144649D01*
X597805Y144626D01*
X597863Y144605D01*
X597923Y144588D01*
X597983Y144573D01*
X598044Y144562D01*
X598105Y144554D01*
X598167Y144549D01*
X598228Y144547D01*
X601870D01*
X601927Y144549D01*
X601983Y144553D01*
X602039Y144561D01*
X602095Y144571D01*
X602150Y144584D01*
X602205Y144600D01*
X602258Y144619D01*
X602311Y144641D01*
X602362Y144665D01*
X602411Y144692D01*
X602460Y144722D01*
X602506Y144754D01*
X602551Y144789D01*
X602595Y144825D01*
X602636Y144864D01*
X602675Y144905D01*
X602711Y144949D01*
X602746Y144993D01*
X602778Y145040D01*
X602808Y145089D01*
X602835Y145138D01*
X602859Y145190D01*
X602881Y145242D01*
X602900Y145295D01*
X602916Y145350D01*
X602929Y145405D01*
X602939Y145460D01*
X602947Y145517D01*
X602951Y145573D01*
X602953Y145630D01*
Y146614D01*
X602951Y146676D01*
X602946Y146738D01*
X602938Y146799D01*
X602927Y146860D01*
X602913Y146920D01*
X602895Y146979D01*
X602874Y147037D01*
X602851Y147095D01*
X602824Y147150D01*
X602795Y147205D01*
X602762Y147257D01*
X602727Y147308D01*
X602690Y147357D01*
X602649Y147405D01*
X602607Y147449D01*
X602562Y147492D01*
X602515Y147532D01*
X602466Y147570D01*
X602415Y147605D01*
X602362Y147637D01*
X602308Y147667D01*
X602252Y147693D01*
X602195Y147717D01*
X602137Y147738D01*
X602077Y147755D01*
X602017Y147769D01*
X601956Y147781D01*
X601895Y147789D01*
X601833Y147794D01*
X601772Y147795D01*
D02*
G37*
G36*
X612205Y151732D02*
X611417D01*
X611350Y151731D01*
X611284Y151725D01*
X611217Y151716D01*
X611151Y151704D01*
X611086Y151689D01*
X611022Y151670D01*
X610959Y151647D01*
X610897Y151622D01*
X610836Y151593D01*
X610778Y151561D01*
X610720Y151526D01*
X610665Y151488D01*
X610612Y151447D01*
X610561Y151404D01*
X610513Y151357D01*
X610466Y151309D01*
X610423Y151258D01*
X610382Y151205D01*
X610344Y151150D01*
X610309Y151093D01*
X610277Y151034D01*
X610248Y150973D01*
X610223Y150911D01*
X610200Y150848D01*
X610181Y150784D01*
X610166Y150719D01*
X610153Y150653D01*
X610145Y150586D01*
X610140Y150520D01*
X610138Y150453D01*
X610140Y150386D01*
X610145Y150319D01*
X610153Y150253D01*
X610166Y150187D01*
X610181Y150122D01*
X610200Y150057D01*
X610223Y149994D01*
X610248Y149932D01*
X610277Y149872D01*
X610309Y149813D01*
X610344Y149756D01*
X610382Y149701D01*
X610423Y149647D01*
X610466Y149597D01*
X610513Y149548D01*
X610561Y149502D01*
X610612Y149458D01*
X610665Y149418D01*
X610720Y149380D01*
X610778Y149345D01*
X610836Y149313D01*
X610897Y149284D01*
X610959Y149258D01*
X611022Y149236D01*
X611086Y149217D01*
X611151Y149201D01*
X611217Y149189D01*
X611284Y149180D01*
X611350Y149175D01*
X611417Y149173D01*
X612205D01*
X612272Y149175D01*
X612338Y149180D01*
X612405Y149189D01*
X612471Y149201D01*
X612536Y149217D01*
X612600Y149236D01*
X612663Y149258D01*
X612725Y149284D01*
X612786Y149313D01*
X612845Y149345D01*
X612902Y149380D01*
X612957Y149418D01*
X613010Y149458D01*
X613061Y149502D01*
X613109Y149548D01*
X613156Y149597D01*
X613199Y149647D01*
X613240Y149701D01*
X613278Y149756D01*
X613313Y149813D01*
X613345Y149872D01*
X613374Y149932D01*
X613399Y149994D01*
X613422Y150057D01*
X613441Y150122D01*
X613456Y150187D01*
X613469Y150253D01*
X613477Y150319D01*
X613483Y150386D01*
X613484Y150453D01*
X613483Y150520D01*
X613477Y150586D01*
X613469Y150653D01*
X613456Y150719D01*
X613441Y150784D01*
X613422Y150848D01*
X613399Y150911D01*
X613374Y150973D01*
X613345Y151034D01*
X613313Y151093D01*
X613278Y151150D01*
X613240Y151205D01*
X613199Y151258D01*
X613156Y151309D01*
X613109Y151357D01*
X613061Y151404D01*
X613010Y151447D01*
X612957Y151488D01*
X612902Y151526D01*
X612845Y151561D01*
X612786Y151593D01*
X612725Y151622D01*
X612663Y151647D01*
X612600Y151670D01*
X612536Y151689D01*
X612471Y151704D01*
X612405Y151716D01*
X612338Y151725D01*
X612272Y151731D01*
X612205Y151732D01*
D02*
G37*
G36*
X601772Y175453D02*
X598130D01*
X598073Y175451D01*
X598017Y175447D01*
X597961Y175439D01*
X597905Y175429D01*
X597850Y175416D01*
X597795Y175400D01*
X597742Y175381D01*
X597690Y175359D01*
X597638Y175335D01*
X597589Y175308D01*
X597540Y175278D01*
X597494Y175246D01*
X597449Y175212D01*
X597405Y175175D01*
X597364Y175136D01*
X597325Y175094D01*
X597289Y175051D01*
X597254Y175006D01*
X597222Y174960D01*
X597192Y174911D01*
X597165Y174862D01*
X597141Y174810D01*
X597119Y174758D01*
X597100Y174705D01*
X597084Y174650D01*
X597071Y174595D01*
X597061Y174539D01*
X597053Y174483D01*
X597049Y174427D01*
X597047Y174370D01*
Y173386D01*
X597049Y173324D01*
X597054Y173262D01*
X597062Y173201D01*
X597073Y173140D01*
X597087Y173080D01*
X597105Y173021D01*
X597126Y172963D01*
X597149Y172905D01*
X597176Y172850D01*
X597205Y172795D01*
X597238Y172743D01*
X597273Y172692D01*
X597310Y172643D01*
X597351Y172596D01*
X597393Y172551D01*
X597438Y172508D01*
X597485Y172468D01*
X597534Y172430D01*
X597585Y172395D01*
X597638Y172363D01*
X597692Y172334D01*
X597748Y172307D01*
X597805Y172283D01*
X597863Y172263D01*
X597923Y172245D01*
X597983Y172231D01*
X598044Y172219D01*
X598105Y172211D01*
X598167Y172206D01*
X598228Y172205D01*
X601772D01*
X601833Y172206D01*
X601895Y172211D01*
X601956Y172219D01*
X602017Y172231D01*
X602077Y172245D01*
X602137Y172263D01*
X602195Y172283D01*
X602252Y172307D01*
X602308Y172334D01*
X602362Y172363D01*
X602415Y172395D01*
X602466Y172430D01*
X602515Y172468D01*
X602562Y172508D01*
X602607Y172551D01*
X602649Y172596D01*
X602690Y172643D01*
X602727Y172692D01*
X602762Y172743D01*
X602795Y172795D01*
X602824Y172850D01*
X602851Y172905D01*
X602874Y172963D01*
X602895Y173021D01*
X602913Y173080D01*
X602927Y173140D01*
X602938Y173201D01*
X602946Y173262D01*
X602951Y173324D01*
X602953Y173386D01*
Y174272D01*
X602951Y174334D01*
X602946Y174395D01*
X602938Y174456D01*
X602927Y174517D01*
X602913Y174577D01*
X602895Y174637D01*
X602874Y174695D01*
X602851Y174752D01*
X602824Y174808D01*
X602795Y174862D01*
X602762Y174915D01*
X602727Y174966D01*
X602690Y175015D01*
X602649Y175062D01*
X602607Y175107D01*
X602562Y175149D01*
X602515Y175189D01*
X602466Y175227D01*
X602415Y175262D01*
X602362Y175294D01*
X602308Y175324D01*
X602252Y175351D01*
X602195Y175374D01*
X602137Y175395D01*
X602077Y175412D01*
X602017Y175427D01*
X601956Y175438D01*
X601895Y175446D01*
X601833Y175451D01*
X601772Y175453D01*
D02*
G37*
G36*
X612205Y170827D02*
X611417D01*
X611350Y170825D01*
X611284Y170820D01*
X611217Y170811D01*
X611151Y170799D01*
X611086Y170783D01*
X611022Y170764D01*
X610959Y170742D01*
X610897Y170716D01*
X610836Y170687D01*
X610778Y170655D01*
X610720Y170620D01*
X610665Y170582D01*
X610612Y170542D01*
X610561Y170498D01*
X610513Y170452D01*
X610466Y170403D01*
X610423Y170352D01*
X610382Y170299D01*
X610344Y170244D01*
X610309Y170187D01*
X610277Y170128D01*
X610248Y170068D01*
X610223Y170006D01*
X610200Y169943D01*
X610181Y169878D01*
X610166Y169813D01*
X610153Y169747D01*
X610145Y169681D01*
X610140Y169614D01*
X610138Y169547D01*
X610140Y169480D01*
X610145Y169413D01*
X610153Y169347D01*
X610166Y169281D01*
X610181Y169216D01*
X610200Y169152D01*
X610223Y169089D01*
X610248Y169027D01*
X610277Y168966D01*
X610309Y168907D01*
X610344Y168850D01*
X610382Y168795D01*
X610423Y168742D01*
X610466Y168691D01*
X610513Y168642D01*
X610561Y168596D01*
X610612Y168553D01*
X610665Y168512D01*
X610720Y168474D01*
X610778Y168439D01*
X610836Y168407D01*
X610897Y168378D01*
X610959Y168353D01*
X611022Y168330D01*
X611086Y168311D01*
X611151Y168296D01*
X611217Y168283D01*
X611284Y168275D01*
X611350Y168270D01*
X611417Y168268D01*
X612205D01*
X612272Y168270D01*
X612338Y168275D01*
X612405Y168283D01*
X612471Y168296D01*
X612536Y168311D01*
X612600Y168330D01*
X612663Y168353D01*
X612725Y168378D01*
X612786Y168407D01*
X612845Y168439D01*
X612902Y168474D01*
X612957Y168512D01*
X613010Y168553D01*
X613061Y168596D01*
X613109Y168642D01*
X613156Y168691D01*
X613199Y168742D01*
X613240Y168795D01*
X613278Y168850D01*
X613313Y168907D01*
X613345Y168966D01*
X613374Y169027D01*
X613399Y169089D01*
X613422Y169152D01*
X613441Y169216D01*
X613456Y169281D01*
X613469Y169347D01*
X613477Y169413D01*
X613483Y169480D01*
X613484Y169547D01*
X613483Y169614D01*
X613477Y169681D01*
X613469Y169747D01*
X613456Y169813D01*
X613441Y169878D01*
X613422Y169943D01*
X613399Y170006D01*
X613374Y170068D01*
X613345Y170128D01*
X613313Y170187D01*
X613278Y170244D01*
X613240Y170299D01*
X613199Y170352D01*
X613156Y170403D01*
X613109Y170452D01*
X613061Y170498D01*
X613010Y170542D01*
X612957Y170582D01*
X612902Y170620D01*
X612845Y170655D01*
X612786Y170687D01*
X612725Y170716D01*
X612663Y170742D01*
X612600Y170764D01*
X612536Y170783D01*
X612471Y170799D01*
X612405Y170811D01*
X612338Y170820D01*
X612272Y170825D01*
X612205Y170827D01*
D02*
G37*
%LPD*%
M02*
