G04*
G04 #@! TF.GenerationSoftware,Altium Limited,Altium Designer,20.2.4 (192)*
G04*
G04 Layer_Color=8388736*
%FSLAX25Y25*%
%MOIN*%
G70*
G04*
G04 #@! TF.SameCoordinates,5D221C76-13CA-4EE4-81E9-8EB1FD8A002E*
G04*
G04*
G04 #@! TF.FilePolarity,Negative*
G04*
G01*
G75*
%ADD17R,0.02000X0.01400*%
%ADD18R,0.03000X0.03200*%
%ADD21R,0.03200X0.03000*%
G04:AMPARAMS|DCode=25|XSize=85.56mil|YSize=24.14mil|CornerRadius=4.81mil|HoleSize=0mil|Usage=FLASHONLY|Rotation=0.000|XOffset=0mil|YOffset=0mil|HoleType=Round|Shape=RoundedRectangle|*
%AMROUNDEDRECTD25*
21,1,0.08556,0.01453,0,0,0.0*
21,1,0.07595,0.02414,0,0,0.0*
1,1,0.00961,0.03797,-0.00726*
1,1,0.00961,-0.03797,-0.00726*
1,1,0.00961,-0.03797,0.00726*
1,1,0.00961,0.03797,0.00726*
%
%ADD25ROUNDEDRECTD25*%
%ADD26R,0.05400X0.02600*%
%ADD27R,0.02959X0.04731*%
%ADD28R,0.06115X0.02375*%
%ADD29R,0.08280X0.07887*%
%ADD30R,0.06800X0.06800*%
%ADD31C,0.06800*%
%ADD32C,0.05603*%
%ADD33C,0.08083*%
%ADD34R,0.08083X0.08083*%
%ADD35R,0.06000X0.06000*%
%ADD36C,0.06000*%
%ADD37C,0.04934*%
%ADD38O,0.08280X0.04540*%
%ADD39C,0.03200*%
G36*
X604134Y150149D02*
Y141102D01*
X595854D01*
Y150149D01*
X604134D01*
D02*
G37*
G36*
X614665Y152907D02*
Y147992D01*
X608955D01*
Y152907D01*
X614665D01*
D02*
G37*
G36*
X604134Y178901D02*
Y169843D01*
X595864D01*
Y178901D01*
X604134D01*
D02*
G37*
G36*
X614665Y172013D02*
Y167087D01*
X608956D01*
Y172013D01*
X614665D01*
D02*
G37*
D17*
X656150Y137086D02*
D03*
X649850D02*
D03*
X666486Y183000D02*
D03*
X660186D02*
D03*
X600848Y137106D02*
D03*
X607148D02*
D03*
D18*
X669436Y137086D02*
D03*
X663336D02*
D03*
X641036Y137000D02*
D03*
X634936D02*
D03*
X622100Y152059D02*
D03*
X628200D02*
D03*
X622064Y159200D02*
D03*
X628164D02*
D03*
X625036Y137000D02*
D03*
X618936D02*
D03*
X611664Y183000D02*
D03*
X605564D02*
D03*
X646836D02*
D03*
X652936D02*
D03*
X618900Y144692D02*
D03*
X625000D02*
D03*
X630836Y183000D02*
D03*
X636936D02*
D03*
D21*
Y166665D02*
D03*
Y172766D02*
D03*
D25*
X647854Y148789D02*
D03*
Y151289D02*
D03*
Y153789D02*
D03*
Y156289D02*
D03*
Y158789D02*
D03*
Y161289D02*
D03*
Y163789D02*
D03*
Y166289D02*
D03*
Y168789D02*
D03*
Y171289D02*
D03*
X667303D02*
D03*
Y168789D02*
D03*
Y166289D02*
D03*
Y163789D02*
D03*
Y161289D02*
D03*
Y158789D02*
D03*
Y156289D02*
D03*
Y153789D02*
D03*
Y151289D02*
D03*
Y148789D02*
D03*
D26*
X640100Y143600D02*
D03*
Y148800D02*
D03*
X632700Y146200D02*
D03*
D27*
X623740Y175724D02*
D03*
X620000D02*
D03*
X616260D02*
D03*
Y166276D02*
D03*
X623740D02*
D03*
D28*
X610532Y160000D02*
D03*
Y162559D02*
D03*
Y157441D02*
D03*
Y165118D02*
D03*
Y154882D02*
D03*
D29*
X600000Y164528D02*
D03*
Y155472D02*
D03*
D30*
X676500Y175000D02*
D03*
Y145000D02*
D03*
D31*
Y165000D02*
D03*
Y155000D02*
D03*
X686500Y175000D02*
D03*
Y165000D02*
D03*
Y155000D02*
D03*
Y145000D02*
D03*
D32*
X658458Y145685D02*
D03*
X628457Y165685D02*
D03*
D33*
X638142Y155370D02*
D03*
D34*
X658458Y175370D02*
D03*
D35*
X698700Y170528D02*
D03*
D36*
Y160528D02*
D03*
Y150528D02*
D03*
D37*
X611811Y169547D02*
D03*
Y150453D02*
D03*
D38*
X600000Y173829D02*
D03*
Y146171D02*
D03*
D39*
X661664Y157037D02*
D03*
X654823Y162500D02*
D03*
X654159Y158100D02*
D03*
Y153260D02*
D03*
X616260Y166276D02*
D03*
X625000Y144692D02*
D03*
X660928Y150220D02*
D03*
X641122Y143600D02*
D03*
X647854Y165250D02*
D03*
X623622Y166240D02*
D03*
X645177Y181299D02*
D03*
X651347Y177963D02*
D03*
X641050Y178900D02*
D03*
X632700Y146200D02*
D03*
X620000Y176000D02*
D03*
M02*
