G04*
G04 #@! TF.GenerationSoftware,Altium Limited,Altium Designer,20.2.4 (192)*
G04*
G04 Layer_Color=65535*
%FSLAX25Y25*%
%MOIN*%
G70*
G04*
G04 #@! TF.SameCoordinates,5D221C76-13CA-4EE4-81E9-8EB1FD8A002E*
G04*
G04*
G04 #@! TF.FilePolarity,Positive*
G04*
G01*
G75*
%ADD10C,0.00500*%
%ADD11C,0.00200*%
%ADD12C,0.02000*%
%ADD13C,0.00787*%
%ADD14C,0.00800*%
%ADD15C,0.00600*%
%ADD16C,0.01000*%
D10*
X659449Y142835D02*
G03*
X655709Y142835I-1870J0D01*
G01*
X649744Y172795D02*
Y177244D01*
X665413D01*
Y172795D02*
Y177244D01*
X649744Y142835D02*
Y147283D01*
Y142835D02*
X665413D01*
Y147283D01*
X611417Y172992D02*
Y174764D01*
Y145236D02*
Y147008D01*
X605118Y145236D02*
X611417D01*
X605118Y174764D02*
X611417D01*
X594291D02*
X594882D01*
X594291Y145236D02*
X594882D01*
X594291D02*
Y174764D01*
D11*
X637500Y142300D02*
G03*
X635138Y142300I-1181J0D01*
G01*
X632300D02*
X640500D01*
X632300D02*
Y150100D01*
X640500Y142300D02*
Y150100D01*
X632300D02*
X640500D01*
D12*
X707400Y170528D02*
G03*
X707400Y170528I-1000J0D01*
G01*
D13*
X616988Y164921D02*
G03*
X616988Y164921I-394J0D01*
G01*
X613898Y163000D02*
X626102D01*
X613898Y179000D02*
X626102D01*
X613898Y163000D02*
Y179000D01*
X626102Y163000D02*
Y179000D01*
D14*
X654476Y139153D02*
X656051D01*
X654476Y135019D02*
Y139153D01*
X648965D02*
X654476D01*
X648965Y135019D02*
X654476D01*
X656051D01*
X660285Y185067D02*
X661860D01*
X667371D01*
X661860Y180933D02*
X667371D01*
X661860D02*
Y185067D01*
X660285Y180933D02*
X661860D01*
X605474Y135039D02*
X607049D01*
X599963D02*
X605474D01*
X599963Y139173D02*
X605474D01*
Y135039D02*
Y139173D01*
X607049D01*
D15*
X703900Y144937D02*
Y176028D01*
X693500D02*
X703900D01*
X693500Y144937D02*
Y176028D01*
Y144937D02*
X703900D01*
D16*
X649100Y145599D02*
Y142600D01*
X650599D01*
X651099Y143100D01*
Y145099D01*
X650599Y145599D01*
X649100D01*
X652099Y145099D02*
X652599Y145599D01*
X653598D01*
X654098Y145099D01*
Y144599D01*
X653598Y144099D01*
X653099D01*
X653598D01*
X654098Y143600D01*
Y143100D01*
X653598Y142600D01*
X652599D01*
X652099Y143100D01*
X674700Y139486D02*
X677699D01*
Y137987D01*
X677199Y137487D01*
X676199D01*
X675700Y137987D01*
Y139486D01*
Y138487D02*
X674700Y137487D01*
X677699Y134488D02*
Y136487D01*
X676199D01*
X676699Y135488D01*
Y134988D01*
X676199Y134488D01*
X675200D01*
X674700Y134988D01*
Y135987D01*
X675200Y136487D01*
X630760Y141647D02*
Y144646D01*
X632260D01*
X632759Y144146D01*
Y143146D01*
X632260Y142646D01*
X630760D01*
X631760D02*
X632759Y141647D01*
X635259D02*
Y144646D01*
X633759Y143146D01*
X635758D01*
X656150Y168684D02*
Y166185D01*
X656650Y165685D01*
X657650D01*
X658149Y166185D01*
Y168684D01*
X659149Y165685D02*
X660149D01*
X659649D01*
Y168684D01*
X659149Y168184D01*
X618036Y149959D02*
X615037D01*
Y151459D01*
X615537Y151958D01*
X616536D01*
X617036Y151459D01*
Y149959D01*
Y150959D02*
X618036Y151958D01*
X615537Y152958D02*
X615037Y153458D01*
Y154458D01*
X615537Y154957D01*
X616037D01*
X616536Y154458D01*
Y153958D01*
Y154458D01*
X617036Y154957D01*
X617536D01*
X618036Y154458D01*
Y153458D01*
X617536Y152958D01*
X617000Y156200D02*
X614001D01*
Y157700D01*
X614501Y158199D01*
X615500D01*
X616000Y157700D01*
Y156200D01*
Y157200D02*
X617000Y158199D01*
Y161198D02*
Y159199D01*
X615001Y161198D01*
X614501D01*
X614001Y160699D01*
Y159699D01*
X614501Y159199D01*
X628400Y145199D02*
X626401D01*
X625901Y144700D01*
Y143700D01*
X626401Y143200D01*
X628400D01*
X628900Y143700D01*
Y144700D01*
X627900Y144200D02*
X628900Y145199D01*
Y144700D02*
X628400Y145199D01*
X628900Y146199D02*
Y147199D01*
Y146699D01*
X625901D01*
X626401Y146199D01*
X611601Y136999D02*
X611101Y136500D01*
Y135500D01*
X611601Y135000D01*
X613600D01*
X614100Y135500D01*
Y136500D01*
X613600Y136999D01*
X614100Y139998D02*
Y137999D01*
X612101Y139998D01*
X611601D01*
X611101Y139499D01*
Y138499D01*
X611601Y137999D01*
X643935Y166602D02*
X644435Y167102D01*
Y168102D01*
X643935Y168601D01*
X641936D01*
X641436Y168102D01*
Y167102D01*
X641936Y166602D01*
X641436Y165602D02*
Y164603D01*
Y165103D01*
X644435D01*
X643935Y165602D01*
X607148Y144495D02*
Y141496D01*
X608647D01*
X609147Y141996D01*
Y143995D01*
X608647Y144495D01*
X607148D01*
X610147Y141496D02*
X611147D01*
X610647D01*
Y144495D01*
X610147Y143995D01*
X673373Y185433D02*
X670374D01*
Y183933D01*
X670874Y183434D01*
X672873D01*
X673373Y183933D01*
Y185433D01*
X670374Y180435D02*
Y182434D01*
X672373Y180435D01*
X672873D01*
X673373Y180935D01*
Y181934D01*
X672873Y182434D01*
X615000Y183999D02*
Y181500D01*
X615500Y181000D01*
X616500D01*
X616999Y181500D01*
Y183999D01*
X619998Y181000D02*
X617999D01*
X619998Y182999D01*
Y183499D01*
X619498Y183999D01*
X618499D01*
X617999Y183499D01*
X609995Y178504D02*
Y175505D01*
X608496D01*
X607996Y176005D01*
Y177004D01*
X608496Y177504D01*
X609995D01*
X608995D02*
X607996Y178504D01*
X606996D02*
X605996D01*
X606496D01*
Y175505D01*
X606996Y176005D01*
X699499Y181503D02*
X698500D01*
X699000D01*
Y179004D01*
X698500Y178504D01*
X698000D01*
X697500Y179004D01*
X702498Y178504D02*
X700499D01*
X702498Y180503D01*
Y181003D01*
X701999Y181503D01*
X700999D01*
X700499Y181003D01*
X598989Y183499D02*
X597989D01*
X598489D01*
Y181000D01*
X597989Y180500D01*
X597489D01*
X596989Y181000D01*
X599989Y180500D02*
X600988D01*
X600488D01*
Y183499D01*
X599989Y182999D01*
X646819Y176831D02*
X647319Y176332D01*
X648319D01*
X648819Y176831D01*
Y178831D01*
X648319Y179331D01*
X647319D01*
X646819Y178831D01*
X643820Y176332D02*
X645820D01*
Y177831D01*
X644820Y177331D01*
X644320D01*
X643820Y177831D01*
Y178831D01*
X644320Y179331D01*
X645320D01*
X645820Y178831D01*
X625817Y136529D02*
X626317Y136029D01*
X627316D01*
X627816Y136529D01*
Y138529D01*
X627316Y139028D01*
X626317D01*
X625817Y138529D01*
X623318Y139028D02*
Y136029D01*
X624817Y137529D01*
X622818D01*
X623501Y182999D02*
X623001Y182500D01*
Y181500D01*
X623501Y181000D01*
X625500D01*
X626000Y181500D01*
Y182500D01*
X625500Y182999D01*
X623501Y183999D02*
X623001Y184499D01*
Y185499D01*
X623501Y185998D01*
X624001D01*
X624501Y185499D01*
Y184999D01*
Y185499D01*
X625000Y185998D01*
X625500D01*
X626000Y185499D01*
Y184499D01*
X625500Y183999D01*
X687100Y139400D02*
Y137401D01*
X686100Y136401D01*
X685101Y137401D01*
Y139400D01*
Y137900D01*
X687100D01*
X684101Y139400D02*
X683101D01*
X683601D01*
Y136401D01*
X684101Y136901D01*
M02*
