M48
;Layer_Color=9474304
;FILE_FORMAT=2:5
INCH,LZ
;TYPE=PLATED
T1F00S00C0.01200
T2F00S00C0.02559
T4F00S00C0.03800
T5F00S00C0.04000
T6F00S00C0.04803
;TYPE=NON_PLATED
T7F00S00C0.04803
%
T01
X0625Y0144692
X06327Y01462
X0641122Y01436
X0654159Y015326
X0660928Y015022
X0661664Y0157037
X0654159Y01581
X0654823Y01625
X0647854Y016525
X0651347Y0177963
X0645177Y0181299
X064105Y01789
X062Y0176
X0623622Y016624
X061626Y0166276
T02
X0611811Y0150453
Y0169547
T04
X06987Y0170528
T05
X06765Y0145
Y0155
X06865
Y0145
X06987Y0150528
Y0160528
X06865Y0165
X06765
Y0175
X06865
T06
X0638142Y015537
X0658458Y017537
T07
X0658458Y0145685
X0628457Y0165685
M30
