G04*
G04 #@! TF.GenerationSoftware,Altium Limited,Altium Designer,20.2.4 (192)*
G04*
G04 Layer_Color=16711935*
%FSLAX25Y25*%
%MOIN*%
G70*
G04*
G04 #@! TF.SameCoordinates,5D221C76-13CA-4EE4-81E9-8EB1FD8A002E*
G04*
G04*
G04 #@! TF.FilePolarity,Negative*
G04*
G01*
G75*
%ADD30R,0.06800X0.06800*%
%ADD31C,0.06800*%
%ADD32C,0.05603*%
%ADD33C,0.08083*%
%ADD34R,0.08083X0.08083*%
%ADD35R,0.06000X0.06000*%
%ADD36C,0.06000*%
%ADD37C,0.04934*%
%ADD38O,0.08280X0.04540*%
%ADD39C,0.03200*%
G36*
X604134Y150149D02*
Y141102D01*
X595854D01*
Y150149D01*
X604134D01*
D02*
G37*
G36*
X614665Y152907D02*
Y147992D01*
X608955D01*
Y152907D01*
X614665D01*
D02*
G37*
G36*
X604134Y178901D02*
Y169843D01*
X595864D01*
Y178901D01*
X604134D01*
D02*
G37*
G36*
X614665Y172013D02*
Y167087D01*
X608956D01*
Y172013D01*
X614665D01*
D02*
G37*
D30*
X676500Y175000D02*
D03*
Y145000D02*
D03*
D31*
Y165000D02*
D03*
Y155000D02*
D03*
X686500Y175000D02*
D03*
Y165000D02*
D03*
Y155000D02*
D03*
Y145000D02*
D03*
D32*
X658458Y145685D02*
D03*
X628457Y165685D02*
D03*
D33*
X638142Y155370D02*
D03*
D34*
X658458Y175370D02*
D03*
D35*
X698700Y170528D02*
D03*
D36*
Y160528D02*
D03*
Y150528D02*
D03*
D37*
X611811Y169547D02*
D03*
Y150453D02*
D03*
D38*
X600000Y173829D02*
D03*
Y146171D02*
D03*
D39*
X661664Y157037D02*
D03*
X654823Y162500D02*
D03*
X654159Y158100D02*
D03*
Y153260D02*
D03*
X616260Y166276D02*
D03*
X625000Y144692D02*
D03*
X660928Y150220D02*
D03*
X641122Y143600D02*
D03*
X647854Y165250D02*
D03*
X623622Y166240D02*
D03*
X645177Y181299D02*
D03*
X651347Y177963D02*
D03*
X641050Y178900D02*
D03*
X632700Y146200D02*
D03*
X620000Y176000D02*
D03*
M02*
